<svg width="45" height="47" viewBox="0 0 45 47" fill="none" xmlns="http://www.w3.org/2000/svg">
<path d="M0 45.623V14V1.43151C0 0.41431 1.15018 -0.176978 1.97741 0.414955L21.5453 14.417C21.9803 14.7283 22.5651 14.7283 23.0001 14.417L42.5681 0.414955C43.3953 -0.176978 44.5455 0.414308 44.5455 1.43151V45.5671C44.5455 46.734 43.0884 47.2645 42.3381 46.3709L30.9727 32.8338C30.5084 32.2808 29.6734 32.2351 29.1515 32.7342L23.1545 38.4693C22.6641 38.9382 21.8891 38.9303 21.4084 38.4514L15.698 32.7629C15.183 32.2499 14.3404 32.2829 13.8671 32.8347L2.19875 46.4368C1.44331 47.3175 0 46.7832 0 45.623Z" fill="url(#paint0_linear)"/>
<defs>
<linearGradient id="paint0_linear" x1="21.902" y1="3.54545" x2="21.902" y2="49" gradientUnits="userSpaceOnUse">
<stop stop-color="#2DD4BF"/>
<stop offset="1" stop-color="#22D3EE"/>
</linearGradient>
</defs>
</svg>
